<svg xmlns="http://www.w3.org/2000/svg" width="24" height="24" viewBox="0 0 41 41" fill="none">
  <path d="M9.03107 29.0619H7.3644C6.48035 29.0619 5.6325 28.7107 5.00738 28.0856C4.38226 27.4604 4.03107 26.6126 4.03107 25.7285V9.06188C4.03107 8.17782 4.38226 7.32998 5.00738 6.70486C5.6325 6.07974 6.48035 5.72855 7.3644 5.72855H34.0311C34.9151 5.72855 35.763 6.07974 36.3881 6.70486C37.0132 7.32998 37.3644 8.17782 37.3644 9.06188V25.7285C37.3644 26.6126 37.0132 27.4604 36.3881 28.0856C35.763 28.7107 34.9151 29.0619 34.0311 29.0619H32.3644" stroke="black" stroke-width="2" stroke-linecap="round" stroke-linejoin="round"/>
  <path d="M20.6977 25.7285L29.0311 35.7285H12.3644L20.6977 25.7285Z" stroke="black" stroke-width="2" stroke-linecap="round" stroke-linejoin="round"/>
</svg>