<svg xmlns="http://www.w3.org/2000/svg" width="70" height="70" viewBox="0 0 200 200" fill="none">
  <path d="M112.5 25C89.5875 25 72.2125 30.3875 60.5438 41.4062C48.8875 52.425 43.75 68.4875 43.75 87.5V93.1625C40.175 96.5625 37.5 100.937 37.5 106.25C37.5 114.125 43.0625 119.712 50 122.462C52.3125 129.756 54.8313 137.419 57.625 143.944C60.6563 151.081 63.4 156.744 67.1875 160.756C71.3921 165.247 76.4737 168.827 82.1178 171.274C87.7618 173.721 93.8482 174.984 100 174.984C106.152 174.984 112.238 173.721 117.882 171.274C123.526 168.827 128.608 165.247 132.812 160.756C136.6 156.744 139.144 151.081 142.188 143.944C144.975 137.419 147.687 129.756 150 122.469C156.938 119.719 162.5 114.131 162.5 106.256C162.5 100.969 159.812 96.5875 156.25 93.1687V87.5C156.25 69.85 152.231 57.2875 145.125 49.025C139.087 42.025 131.031 39.15 123.05 38.275L118.163 28.525L116.412 25H112.5ZM108.788 37.8938L113.087 46.4875C115.169 50.65 115.981 53.6125 116.013 54.8812C116.05 56.1562 116.094 55.6312 115.825 55.8687C115.281 56.325 110.013 57.6812 103.513 58.0125C97.0125 58.35 89.3625 58.1875 82.225 60.95C75.1 63.7125 68.8313 71.1187 68.75 81.2625H81.25C81.3 75.1 82.7312 74.2125 86.7188 72.6687C90.7063 71.125 97.5812 70.6687 104.3 70.325C111.012 69.9812 117.944 70.3875 123.831 65.45C126.769 62.9687 128.644 58.7 128.519 54.5125C128.487 53.5875 128.269 52.7 128.125 51.7625C130.989 52.9899 133.531 54.8639 135.55 57.2375C140.081 62.5 143.75 71.7625 143.75 87.5V99.025L146.875 100.775C148.775 101.881 150 103.875 150 106.25C150.036 107.819 149.469 109.342 148.416 110.505C147.362 111.668 145.902 112.382 144.337 112.5L140.038 112.687L138.869 116.794C136.568 124.281 133.894 131.649 130.856 138.869C128.044 145.469 124.813 151.094 123.825 152.144C110.513 166.206 89.4688 166.206 76.1688 152.144C75.1688 151.094 71.95 145.469 69.1312 138.862C66.1009 131.641 63.431 124.274 61.1313 116.787L59.9563 112.681L55.6562 112.494C54.0936 112.374 52.6363 111.66 51.5842 110.499C50.532 109.337 49.965 107.817 50 106.25C50 103.912 51.2062 101.887 53.125 100.781L56.25 99.0312V87.5C56.25 70.6437 60.525 58.525 69.1437 50.3875C77.1437 42.825 90.2063 38.5125 108.788 37.8875V37.8938ZM81.25 100C79.5924 100 78.0027 100.658 76.8306 101.831C75.6585 103.003 75 104.592 75 106.25C75 107.908 75.6585 109.497 76.8306 110.669C78.0027 111.842 79.5924 112.5 81.25 112.5C82.9076 112.5 84.4973 111.842 85.6694 110.669C86.8415 109.497 87.5 107.908 87.5 106.25C87.5 104.592 86.8415 103.003 85.6694 101.831C84.4973 100.658 82.9076 100 81.25 100ZM118.75 100C117.092 100 115.503 100.658 114.331 101.831C113.158 103.003 112.5 104.592 112.5 106.25C112.5 107.908 113.158 109.497 114.331 110.669C115.503 111.842 117.092 112.5 118.75 112.5C120.408 112.5 121.997 111.842 123.169 110.669C124.342 109.497 125 107.908 125 106.25C125 104.592 124.342 103.003 123.169 101.831C121.997 100.658 120.408 100 118.75 100Z" fill="white"/>
</svg>